<?xml version="1.0" encoding="UTF-8"?>
<svg width="194px" height="44px" viewBox="0 0 194 44" version="1.1" xmlns="http://www.w3.org/2000/svg" xmlns:xlink="http://www.w3.org/1999/xlink">
    <!-- Generator: Sketch 46.2 (44496) - http://www.bohemiancoding.com/sketch -->
    <title>Group 18</title>
    <desc>Created with Sketch.</desc>
    <defs></defs>
    <g id="hs" stroke="none" stroke-width="1" fill="none" fill-rule="evenodd">
        <g id="Group-18" transform="translate(1.000000, 1.000000)">
            <path d="M63.1875,32 L72.734375,9.4375 L78.71875,9.4375 L88.25,32 L81.59375,32 L79.953125,28 L71.3125,28 L69.71875,32 L63.1875,32 Z M73.140625,23.171875 L78.171875,23.171875 L75.671875,16.796875 L73.140625,23.171875 Z M90.306875,32 L90.306875,9.59375 L96.556875,9.59375 L96.556875,32 L90.306875,32 Z M100.395,32 L100.395,9.59375 L109.035625,9.59375 C111.004385,9.59375 112.785617,9.86718477 114.379375,10.4140625 C115.973133,10.9609402 117.301245,11.7265576 118.36375,12.7109375 C119.426255,13.6953174 120.243955,14.8697848 120.816875,16.234375 C121.389795,17.5989652 121.67625,19.0989502 121.67625,20.734375 C121.67625,22.3489664 121.38719,23.8437431 120.809063,25.21875 C120.230935,26.5937569 119.405422,27.7838491 118.3325,28.7890625 C117.259578,29.7942759 115.915841,30.5807263 114.30125,31.1484375 C112.686659,31.7161487 110.889802,32 108.910625,32 L100.395,32 Z M106.598125,26.5 L109.129375,26.5 C111.014801,26.5 112.514786,25.9974009 113.629375,24.9921875 C114.743964,23.9869741 115.30125,22.5781341 115.30125,20.765625 C115.30125,18.9947828 114.74136,17.5989634 113.621563,16.578125 C112.501765,15.5572866 111.004384,15.046875 109.129375,15.046875 L106.598125,15.046875 L106.598125,26.5 Z M124.62375,32 L124.62375,9.59375 L136.108125,9.59375 C138.837305,9.59375 140.873743,10.2656183 142.2175,11.609375 C143.186255,12.5781298 143.670625,13.8072842 143.670625,15.296875 C143.670625,17.6198033 142.514387,19.281245 140.201875,20.28125 C141.649799,20.7604191 142.753955,21.4348915 143.514375,22.3046875 C144.274795,23.1744835 144.655,24.3489509 144.655,25.828125 C144.655,27.755218 143.907612,29.2656195 142.412813,30.359375 C140.918013,31.4531305 138.837305,32 136.170625,32 L124.62375,32 Z M130.670625,27.015625 L135.4675,27.015625 C136.415421,27.015625 137.149789,26.8333352 137.670625,26.46875 C138.191461,26.1041648 138.451875,25.5781284 138.451875,24.890625 C138.451875,24.2656219 138.196669,23.7734393 137.68625,23.4140625 C137.175831,23.0546857 136.415422,22.875 135.405,22.875 L130.670625,22.875 L130.670625,27.015625 Z M130.670625,18.53125 L134.576875,18.53125 C136.535218,18.53125 137.514375,17.8593817 137.514375,16.515625 C137.514375,15.9010386 137.274794,15.427085 136.795625,15.09375 C136.316456,14.760415 135.618546,14.59375 134.701875,14.59375 L130.670625,14.59375 L130.670625,18.53125 Z M146.493125,20.796875 C146.493125,19.2135337 146.803018,17.7057363 147.422813,16.2734375 C148.042607,14.8411387 148.883745,13.6041719 149.94625,12.5625 C151.008755,11.5208281 152.289993,10.6927114 153.79,10.078125 C155.290008,9.46353859 156.88895,9.15625 158.586875,9.15625 C160.2848,9.15625 161.881138,9.46093445 163.375938,10.0703125 C164.870737,10.6796905 166.146766,11.502599 167.204063,12.5390625 C168.261359,13.575526 169.094684,14.8098887 169.704063,16.2421875 C170.313441,17.6744863 170.618125,19.1927003 170.618125,20.796875 C170.618125,22.3802163 170.308232,23.8906178 169.688438,25.328125 C169.068643,26.7656322 168.227505,28.0052031 167.165,29.046875 C166.102495,30.0885469 164.821258,30.9166636 163.32125,31.53125 C161.821243,32.1458364 160.2223,32.453125 158.524375,32.453125 C156.263947,32.453125 154.211884,31.934901 152.368125,30.8984375 C150.524366,29.861974 149.084276,28.455738 148.047813,26.6796875 C147.011349,24.903637 146.493125,22.9427191 146.493125,20.796875 Z M152.8525,20.796875 C152.8525,22.4531333 153.394161,23.8749941 154.4775,25.0625 C155.560839,26.2500059 156.930617,26.84375 158.586875,26.84375 C160.263967,26.84375 161.633745,26.2578184 162.69625,25.0859375 C163.758755,23.9140566 164.29,22.4843834 164.29,20.796875 C164.29,19.1406167 163.748339,17.7187559 162.665,16.53125 C161.581661,15.3437441 160.201467,14.75 158.524375,14.75 C156.868117,14.75 155.508755,15.3359316 154.44625,16.5078125 C153.383745,17.6796934 152.8525,19.1093666 152.8525,20.796875 Z M170.315625,32 L177.9875,20.609375 L170.628125,9.59375 L177.76875,9.59375 L181.7375,15.90625 L185.7375,9.59375 L192.70625,9.59375 L185.346875,20.546875 L193.034375,32 L185.89375,32 L181.596875,25.25 L177.284375,32 L170.315625,32 Z" id="Aidbox" fill="#404040"></path>
            <g id="Group-58">
                <path d="M19.2222222,23 L22.1111111,15 L25,23 L19,23 L19.2222222,23 L19.2222222,23 L19.2222222,23 Z M9,32 L14.4862385,32 L16.6330275,26.7428571 L27.1284404,26.7428571 L29.2752294,32 L35,32 L24.5045872,8 L19.4954128,8 L9,32 L9,32 L9,32 L9,32 Z" id="Shape" fill="#EA4A35"></path>
                <path d="M4.52307692,37.4769231 L4.52307692,28 L0,28 L0,42 L14,42 L14,37.4769231 L4.52307692,37.4769231 L4.52307692,37.4769231 L4.52307692,37.4769231 L4.52307692,37.4769231 Z M38.4769231,28 L38.4769231,37.4769231 L29,37.4769231 L29,42 L43,42 L43,28 L38.6923077,28 L38.4769231,28 L38.4769231,28 L38.4769231,28 Z M29,0 L29,4.09230769 L38.6923077,4.09230769 L38.6923077,14 L43,14 L43,0 L29,0 L29,0 L29,0 L29,0 Z M4.73846154,4.09230769 L14,4.09230769 L14,0 L0,0 L0,14 L4.52307692,14 L4.52307692,4.09230769 L4.73846154,4.09230769 L4.73846154,4.09230769 L4.73846154,4.09230769 Z" id="Shape" stroke="#404040" stroke-width="0.8" fill="#404040"></path>
            </g>
        </g>
    </g>
</svg>