<svg id="Layer_1" data-name="Layer 1" xmlns="http://www.w3.org/2000/svg" xmlns:xlink="http://www.w3.org/1999/xlink" width="430" height="50" viewBox="0 0 430 50"><defs><style>.cls-1{fill:#fffffe}.cls-1,.cls-2,.cls-3{fill-rule:evenodd}.cls-2{fill:#3b3d3a}.cls-3{fill:#f7d81f}.cls-4{fill:#fff}.cls-5{fill:url(#linear-gradient)}.cls-6{fill:url(#linear-gradient-2)}.cls-7{fill:url(#linear-gradient-3)}.cls-8{fill:url(#linear-gradient-4)}.cls-9{fill:url(#linear-gradient-5)}.cls-10{fill:url(#linear-gradient-6)}.cls-11{fill:#df2827}</style><linearGradient id="linear-gradient" x1="253.1" y1="-96.91" x2="253.1" y2="-55.95" gradientTransform="matrix(1 0 0 -1 0 -48)" gradientUnits="userSpaceOnUse"><stop offset="0" stop-color="#fff"/><stop offset=".04" stop-color="#fef7bc"/><stop offset=".08" stop-color="#fef083"/><stop offset=".12" stop-color="#fdea54"/><stop offset=".15" stop-color="#fde62f"/><stop offset=".19" stop-color="#fce315"/><stop offset=".22" stop-color="#fce106"/><stop offset=".24" stop-color="#fce000"/><stop offset=".28" stop-color="#fbd502"/><stop offset=".36" stop-color="#f7b709"/><stop offset=".45" stop-color="#f08613"/><stop offset=".57" stop-color="#e74422"/><stop offset=".62" stop-color="#e32329"/><stop offset="1" stop-color="#e9262a"/></linearGradient><linearGradient id="linear-gradient-2" x1="247.87" y1="-90.91" x2="247.87" y2="-59.84" xlink:href="#linear-gradient"/><linearGradient id="linear-gradient-3" x1="260.06" y1="-96.91" x2="260.06" y2="-54.01" xlink:href="#linear-gradient"/><linearGradient id="linear-gradient-4" x1="257.98" y1="-89.29" x2="257.98" y2="-70.2" gradientTransform="matrix(1 0 0 -1 0 -48)" gradientUnits="userSpaceOnUse"><stop offset="0" stop-color="#fefae9"/><stop offset=".62" stop-color="#fee629"/><stop offset=".75" stop-color="#fee200"/><stop offset=".82" stop-color="#fedf01"/><stop offset=".86" stop-color="#fcd604"/><stop offset=".9" stop-color="#fac609"/><stop offset=".94" stop-color="#f7af11"/><stop offset=".98" stop-color="#f2931a"/><stop offset="1" stop-color="#ef7b22"/></linearGradient><linearGradient id="linear-gradient-5" x1="253.24" y1="-86.23" x2="253.24" y2="-44.12" gradientTransform="matrix(1 0 0 -1 0 -48)" gradientUnits="userSpaceOnUse"><stop offset="0" stop-color="#fff"/><stop offset=".04" stop-color="#fff7bc"/><stop offset=".08" stop-color="#fff183"/><stop offset=".12" stop-color="#feec54"/><stop offset=".15" stop-color="#fee72f"/><stop offset=".19" stop-color="#fee415"/><stop offset=".22" stop-color="#fee306"/><stop offset=".24" stop-color="#fee200"/><stop offset=".28" stop-color="#fcd702"/><stop offset=".36" stop-color="#f8b909"/><stop offset=".45" stop-color="#f18813"/><stop offset=".57" stop-color="#e84622"/><stop offset=".62" stop-color="#e32329"/><stop offset="1" stop-color="#e9262a"/></linearGradient><linearGradient id="linear-gradient-6" x1="254.22" y1="-86.99" x2="254.22" y2="-58.03" gradientTransform="matrix(1 0 0 -1 0 -48)" gradientUnits="userSpaceOnUse"><stop offset="0" stop-color="#fefae9"/><stop offset=".57" stop-color="#fee629"/><stop offset=".69" stop-color="#fee200"/><stop offset=".76" stop-color="#fccf09"/><stop offset=".92" stop-color="#f9a81a"/><stop offset="1" stop-color="#f89921"/></linearGradient></defs><title>DevDays HL7 FHIR white</title><path id="Fill-1" class="cls-1" d="M76.27 26.52a15.05 15.05 0 0 0-.49-3.9 8.42 8.42 0 0 0-1.58-3.13 7.38 7.38 0 0 0-2.78-2.07A11.47 11.47 0 0 0 67 16.7h-3v20.07h3a11.79 11.79 0 0 0 4.16-.64A6.86 6.86 0 0 0 74 34.2a8.3 8.3 0 0 0 1.69-3.2 16.16 16.16 0 0 0 .58-4.48zm6.21-.2a20.28 20.28 0 0 1-1.06 7 11.84 11.84 0 0 1-3 4.71 12.23 12.23 0 0 1-4.88 2.67 23.09 23.09 0 0 1-6.77.86h-7a1.91 1.91 0 0 1-1.27-.44 1.86 1.86 0 0 1-.5-1.45v-25.8a1.86 1.86 0 0 1 .51-1.45 1.91 1.91 0 0 1 1.26-.42h7.53a21.4 21.4 0 0 1 6.7.92 12.17 12.17 0 0 1 4.63 2.74 11.72 11.72 0 0 1 2.87 4.49 17.87 17.87 0 0 1 .98 6.17z"/><path id="Fill-2" class="cls-1" d="M100.31 28.32a6 6 0 0 0-1-3.8 3.75 3.75 0 0 0-3.21-1.38 4.35 4.35 0 0 0-1.91.41 3.91 3.91 0 0 0-1.31 1.15 5.05 5.05 0 0 0-.82 1.64 8 8 0 0 0-.34 2zm5.57 1.68a2.17 2.17 0 0 1-.47 1.55 1.65 1.65 0 0 1-1.29.5h-12.4a8.59 8.59 0 0 0 .28 2.34 4.51 4.51 0 0 0 1 1.8 4.37 4.37 0 0 0 1.74 1.13 7.33 7.33 0 0 0 2.54.39 13.81 13.81 0 0 0 2.65-.22 17.12 17.12 0 0 0 2-.48q.82-.25 1.38-.48a2.71 2.71 0 0 1 .89-.22.58.58 0 0 1 .34.09.49.49 0 0 1 .23.28 1.94 1.94 0 0 1 .12.58 7.53 7.53 0 0 1 0 1v.86a1.57 1.57 0 0 1-.07.6 1.23 1.23 0 0 1-.14.42 1.27 1.27 0 0 1-.24.33 2.77 2.77 0 0 1-.81.44 12.77 12.77 0 0 1-1.69.54c-.68.17-1.47.32-2.35.45a19.14 19.14 0 0 1-2.83.2 14.8 14.8 0 0 1-4.76-.74 8.25 8.25 0 0 1-5.46-5.59 16.58 16.58 0 0 1-.67-5 16 16 0 0 1 .71-4.9 10.05 10.05 0 0 1 2-3.69 8.74 8.74 0 0 1 3.28-2.32 12.65 12.65 0 0 1 8.72-.05 7.87 7.87 0 0 1 3 2.09 8.53 8.53 0 0 1 1.71 3.16 13.56 13.56 0 0 1 .55 4z"/><path id="Fill-3" class="cls-1" d="M129.12 20.36v.27a1 1 0 0 1-.05.36 3.76 3.76 0 0 0-.09.44q-.06.26-.15.57l-6.13 18.42a1.67 1.67 0 0 1-.3.63 1.24 1.24 0 0 1-.64.38 5 5 0 0 1-1.21.18h-2a19.22 19.22 0 0 1-2-.06 5.37 5.37 0 0 1-1.19-.19 1.25 1.25 0 0 1-.63-.38 1.76 1.76 0 0 1-.31-.61L108.32 22c-.09-.3-.16-.58-.22-.82s-.07-.32-.1-.48v-.29a.64.64 0 0 1 .13-.4.88.88 0 0 1 .44-.29 3.79 3.79 0 0 1 .88-.16h1.41a13.23 13.23 0 0 1 1.5.05 5.67 5.67 0 0 1 .9.16.87.87 0 0 1 .47.3 1.71 1.71 0 0 1 .23.47l4.63 15 .14.57.14-.57 4.56-15a1.35 1.35 0 0 1 .22-.47 1 1 0 0 1 .47-.3 5 5 0 0 1 .86-.16c.35 0 .82-.05 1.4-.05h1.38a3.39 3.39 0 0 1 .83.16.82.82 0 0 1 .41.28.8.8 0 0 1 .11.4"/><path id="Fill-4" class="cls-1" d="M152.13 26.48a16.48 16.48 0 0 0-.59-4.47 9.69 9.69 0 0 0-1.86-3.57 8.6 8.6 0 0 0-3.21-2.35 12.55 12.55 0 0 0-5-.85h-4v23h4.05a14 14 0 0 0 4.77-.7 8 8 0 0 0 3.24-2.17 9.38 9.38 0 0 0 1.95-3.67 18.78 18.78 0 0 0 .65-5.22zm4.13-.16a20.59 20.59 0 0 1-1 6.7 12.3 12.3 0 0 1-2.86 4.75 11.94 11.94 0 0 1-4.63 2.81 20.1 20.1 0 0 1-6.53.94H135a1.66 1.66 0 0 1-1-.35 1.44 1.44 0 0 1-.47-1.25V13.58a1.44 1.44 0 0 1 .47-1.25 1.66 1.66 0 0 1 1-.35h6.69a18.53 18.53 0 0 1 6.48 1 11.63 11.63 0 0 1 4.44 2.86 12.22 12.22 0 0 1 2.72 4.5 17.89 17.89 0 0 1 .93 6z"/><path id="Fill-5" class="cls-1" d="M173.61 31.59h-3.21a12.87 12.87 0 0 0-2.7.26 5.69 5.69 0 0 0-1.89.78 3.13 3.13 0 0 0-1.11 1.23 3.55 3.55 0 0 0-.35 1.66 3.27 3.27 0 0 0 1 2.54 4 4 0 0 0 2.84 1 5.22 5.22 0 0 0 2.75-.75A11.52 11.52 0 0 0 173.6 36zm3.75 9.41a.47.47 0 0 1-.18.41 1.2 1.2 0 0 1-.51.21 4.17 4.17 0 0 1-.93.07 4.81 4.81 0 0 1-1-.07 1 1 0 0 1-.51-.21.49.49 0 0 1-.16-.41v-2a10.33 10.33 0 0 1-3 2.24 8 8 0 0 1-3.5.79 9.71 9.71 0 0 1-2.93-.42 6.44 6.44 0 0 1-2.24-1.22 5.4 5.4 0 0 1-1.44-2 6.52 6.52 0 0 1-.51-2.65 6 6 0 0 1 .71-3 5.76 5.76 0 0 1 2-2.13 9.94 9.94 0 0 1 3.24-1.26 19.52 19.52 0 0 1 4.31-.43h2.83v-1.6a7.84 7.84 0 0 0-.25-2.1 3.38 3.38 0 0 0-2.19-2.44 6.78 6.78 0 0 0-2.19-.3 8.81 8.81 0 0 0-2.5.33 13.32 13.32 0 0 0-1.94.73c-.55.26-1 .51-1.39.73a1.94 1.94 0 0 1-.83.33.59.59 0 0 1-.32-.09.72.72 0 0 1-.24-.28 1.36 1.36 0 0 1-.15-.47 3.21 3.21 0 0 1 0-.62 3.92 3.92 0 0 1 .08-.9 1.19 1.19 0 0 1 .39-.63 5 5 0 0 1 1.06-.7 12.07 12.07 0 0 1 1.74-.73 17.68 17.68 0 0 1 2.14-.55 13.25 13.25 0 0 1 2.35-.21 12.29 12.29 0 0 1 3.77.5 6 6 0 0 1 2.51 1.47 5.52 5.52 0 0 1 1.42 2.33 11.51 11.51 0 0 1 .44 3.35z"/><path id="Fill-6" class="cls-1" d="M192.77 41.52l-2.7 7.48a1 1 0 0 1-.69.56 5.42 5.42 0 0 1-1.7.19 5.6 5.6 0 0 1-1-.06 1.38 1.38 0 0 1-.56-.19.47.47 0 0 1-.22-.37 1.25 1.25 0 0 1 .12-.54l2.78-7a1.27 1.27 0 0 1-.39-.3 1.16 1.16 0 0 1-.25-.43l-7.32-19.63a2.24 2.24 0 0 1-.19-.76.51.51 0 0 1 .19-.43 1.07 1.07 0 0 1 .59-.22 8 8 0 0 1 1.09-.05h1.08a2.13 2.13 0 0 1 .61.12.67.67 0 0 1 .33.27 2.86 2.86 0 0 1 .22.47l5.87 16.48h.07l5.66-16.58a1 1 0 0 1 .33-.55 1.37 1.37 0 0 1 .58-.19 8.4 8.4 0 0 1 1.12 0 6.7 6.7 0 0 1 1 0 1.22 1.22 0 0 1 .61.21.51.51 0 0 1 .19.43 2.29 2.29 0 0 1-.14.69l-7.37 20.43"/><path id="Fill-7" class="cls-1" d="M217 35.36a6.43 6.43 0 0 1-.59 2.8 5.49 5.49 0 0 1-1.65 2.08 7.61 7.61 0 0 1-2.56 1.28 11.59 11.59 0 0 1-3.26.43 11.27 11.27 0 0 1-2.09-.17 12.14 12.14 0 0 1-1.78-.43 9.2 9.2 0 0 1-1.34-.55 4.51 4.51 0 0 1-.8-.51 1.37 1.37 0 0 1-.36-.64 4.23 4.23 0 0 1-.12-1.12 4.45 4.45 0 0 1 0-.73 2.77 2.77 0 0 1 .11-.48.47.47 0 0 1 .2-.26.46.46 0 0 1 .24-.06 1.53 1.53 0 0 1 .74.31c.33.2.74.43 1.21.67a10.46 10.46 0 0 0 1.71.67 7.52 7.52 0 0 0 2.26.31 7.24 7.24 0 0 0 1.73-.2 4.22 4.22 0 0 0 1.35-.61 2.74 2.74 0 0 0 .88-1 3.36 3.36 0 0 0 .31-1.46 2.32 2.32 0 0 0-.45-1.46 4.55 4.55 0 0 0-1.18-1.05 10 10 0 0 0-1.64-.81c-.61-.23-1.24-.48-1.88-.74a19.21 19.21 0 0 1-1.9-.88 7.49 7.49 0 0 1-1.65-1.2 5.37 5.37 0 0 1-1.18-1.69 5.71 5.71 0 0 1-.44-2.35 6 6 0 0 1 .46-2.32 5.51 5.51 0 0 1 1.41-1.94 7.07 7.07 0 0 1 2.34-1.33 9.55 9.55 0 0 1 3.27-.5 10.19 10.19 0 0 1 1.65.13 12.67 12.67 0 0 1 1.48.34 7.39 7.39 0 0 1 1.13.45 5.09 5.09 0 0 1 .71.42 1.22 1.22 0 0 1 .32.32 1.15 1.15 0 0 1 .11.31 3.07 3.07 0 0 1 .07.42v1.29a1.53 1.53 0 0 1-.11.47.63.63 0 0 1-.2.26.38.38 0 0 1-.25.08 1.29 1.29 0 0 1-.59-.25 7.34 7.34 0 0 0-1-.53 12.13 12.13 0 0 0-1.46-.54 6.45 6.45 0 0 0-1.9-.25 6 6 0 0 0-1.69.21 3.2 3.2 0 0 0-1.2.62 2.56 2.56 0 0 0-.71 1 3 3 0 0 0-.24 1.19 2.35 2.35 0 0 0 .46 1.49 4.15 4.15 0 0 0 1.19 1.06 9.15 9.15 0 0 0 1.66.82l1.91.76a18.66 18.66 0 0 1 1.92.87 6.9 6.9 0 0 1 1.68 1.16 5.41 5.41 0 0 1 1.17 1.64 5.3 5.3 0 0 1 .45 2.29"/><path id="Fill-8" class="cls-2" d="M45.41 40.55A7.43 7.43 0 0 1 38 48H7.43A7.42 7.42 0 0 1 0 40.56V10a7.43 7.43 0 0 1 7.43-7.44H38A7.43 7.43 0 0 1 45.43 10v30.55"/><path id="Fill-9" class="cls-3" d="M19.87 37.47a.55.55 0 0 1-.55-.55V31a.55.55 0 0 1 .55-.55.54.54 0 0 1 .54.54v5.91a.54.54 0 0 1-.53.55"/><path id="Fill-10" class="cls-3" d="M22.91 37.47a.54.54 0 0 1-.54-.54V31a.54.54 0 0 1 .53-.55.55.55 0 0 1 .55.55v5.92a.55.55 0 0 1-.55.54"/><path id="Fill-11" class="cls-3" d="M26 37.47a.54.54 0 0 1-.54-.54V31a.54.54 0 0 1 1.08 0v5.92a.54.54 0 0 1-.54.54"/><path id="Fill-14" class="cls-3" d="M22.84 21a3.29 3.29 0 1 0 3.29 3.29A3.29 3.29 0 0 0 22.84 21zm0 7.89a4.6 4.6 0 1 1 4.59-4.61 4.62 4.62 0 0 1-4.59 4.63z"/><path id="Fill-15" class="cls-3" d="M24.25 24.31a1.42 1.42 0 1 1-1.42-1.42 1.41 1.41 0 0 1 1.41 1.41"/><path class="cls-3" d="M32.21 38.63H30V28.8h2.11A1.89 1.89 0 0 0 34 26.91v-5.17a1.9 1.9 0 0 0-1.91-1.87H30v-1.29h.49a2 2 0 1 0 0-4h-.27A7.14 7.14 0 0 0 26 8.69c-.36-.81-1.63-1.11-2.84-1.11s-2.48.31-2.85 1.12a7.09 7.09 0 0 0-4.19 5.88h-.78a2 2 0 0 0 0 4h.47v1.29h-2.16a1.89 1.89 0 0 0-1.89 1.89v5.15a1.89 1.89 0 0 0 1.89 1.89h2.14v9.83H14a1.89 1.89 0 0 0-1.89 1.89v.73A1.89 1.89 0 0 0 14 43.14h18.21a1.89 1.89 0 0 0 1.89-1.89v-.73a1.89 1.89 0 0 0-1.89-1.89zm-.12-17.45a.58.58 0 0 1 .58.58v5.17a.58.58 0 0 1-.58.56H30v-6.31zm-11-11.39l.39-.09v-.52a2.83 2.83 0 0 1 1.66-.37 5.46 5.46 0 0 1 1.66.29v.44l.41.16A5.73 5.73 0 0 1 29 14.58H17.45a5.74 5.74 0 0 1 3.66-4.79zm-5.79 7.48a.69.69 0 0 1-.69-.69.67.67 0 0 1 .69-.67h15.2a.67.67 0 0 1 .68.68.69.69 0 0 1-.69.69H15.32zm13.4 1.31v20.05H17.09V18.58zm-15.05 8.91a.58.58 0 0 1-.58-.58v-5.15a.58.58 0 0 1 .58-.58h2.14v6.31zM32.8 41.25a.58.58 0 0 1-.59.57H14a.58.58 0 0 1-.58-.58v-.73a.58.58 0 0 1 .58-.58h18.22a.58.58 0 0 1 .58.58z"/><path class="cls-4" d="M230.61 15.86h1v29h-1zM293.9 19.14v22.73h-4.76V31.7H279v10.17h-4.74V19.14H279v8.12h10.19v-8.12zM302.93 19.13v18.35h11.24v4.39h-16V19.13zM325.7 23.55h-11.25v-4.43h16.65v4.24L322 41.87h-5.63zM339.55 21.37a1.18 1.18 0 0 0 .38-1 1.31 1.31 0 0 0-.42-1.07 2.14 2.14 0 0 0-1.28-.33h-1.75v4.76h.75v-2h.77l1.27 2h.83l-1.36-2a1.57 1.57 0 0 0 .81-.36zm-.38-1a.7.7 0 0 1-.09.4.54.54 0 0 1-.26.21 1.3 1.3 0 0 1-.39.09h-1.2V19.7h1.31a1 1 0 0 1 .33.09.7.7 0 0 1 .22.2.73.73 0 0 1 .08.38z"/><path class="cls-4" d="M341.8 19.7a3.89 3.89 0 0 0-.89-1.27 3.93 3.93 0 0 0-1.3-.86 4.08 4.08 0 0 0-5.35 2.15 4.12 4.12 0 0 0 0 3.23 4.18 4.18 0 0 0 .88 1.28 4.3 4.3 0 0 0 1.3.85 4.13 4.13 0 0 0 4.47-.86 4 4 0 0 0 1.22-2.91 3.9 3.9 0 0 0-.33-1.61zm-.43 1.61a3.63 3.63 0 0 1-.26 1.34 3.11 3.11 0 0 1-.72 1.07 3.21 3.21 0 0 1-1.06.72 3.35 3.35 0 0 1-2.6 0 3.51 3.51 0 0 1-1.07-.71 3.3 3.3 0 0 1-.66-1 3.53 3.53 0 0 1-.26-1.32A3.68 3.68 0 0 1 335 20a3.08 3.08 0 0 1 .71-1.07 3.35 3.35 0 0 1 3.67-.72 3.35 3.35 0 0 1 1.06.71 3.07 3.07 0 0 1 .72 1.06 3.39 3.39 0 0 1 .21 1.34zM414.76 21.37a1.18 1.18 0 0 0 .38-1 1.31 1.31 0 0 0-.42-1.07 2.14 2.14 0 0 0-1.28-.33h-1.75v4.76h.75v-2h.75l1.27 2h.83l-1.29-2a1.53 1.53 0 0 0 .76-.36zm-.38-1a.7.7 0 0 1-.09.4.54.54 0 0 1-.29.23 1.24 1.24 0 0 1-.38.09h-1.21V19.7h1.32a.9.9 0 0 1 .32.09.7.7 0 0 1 .22.2.73.73 0 0 1 .11.38z"/><path class="cls-4" d="M417 19.7a3.89 3.89 0 0 0-.89-1.27 3.93 3.93 0 0 0-1.3-.86 4.08 4.08 0 0 0-5.35 2.15 4.12 4.12 0 0 0 0 3.23 4.18 4.18 0 0 0 .88 1.28 4.3 4.3 0 0 0 1.3.85 4.24 4.24 0 0 0 3.17 0 4.08 4.08 0 0 0 1.31-.86 4.22 4.22 0 0 0 .88-1.29 4.08 4.08 0 0 0 .33-1.62 3.9 3.9 0 0 0-.33-1.61zm-.43 1.61a3.63 3.63 0 0 1-.26 1.34 3.11 3.11 0 0 1-.72 1.07 3.21 3.21 0 0 1-1.06.72 3.35 3.35 0 0 1-2.6 0 3.51 3.51 0 0 1-1.07-.71 3.35 3.35 0 0 1-.71-1.06 3.53 3.53 0 0 1-.26-1.32 3.68 3.68 0 0 1 .26-1.35 3.08 3.08 0 0 1 .71-1.07 3.35 3.35 0 0 1 3.67-.72 3.35 3.35 0 0 1 1.06.71 3.07 3.07 0 0 1 .72 1.06 3.56 3.56 0 0 1 .27 1.37zM344.79 19.47h13.51v1.91h-11.41v8h10.62v1.91h-10.62V42h-2.1zM362.51 19.47h2.11v10h12.62v-10h2.1V42h-2.1V31.33h-12.62V42h-2.11zM385.53 19.47h2.1V42h-2.1zM393.81 19.47H401a13.18 13.18 0 0 1 1.66.19 11.43 11.43 0 0 1 1.82.51 5.25 5.25 0 0 1 1.65 1 5.37 5.37 0 0 1 1.22 1.69 6.09 6.09 0 0 1 .47 2.49 5.66 5.66 0 0 1-.55 2.68 5.14 5.14 0 0 1-1.41 1.7 5.5 5.5 0 0 1-1.86 1 10.82 10.82 0 0 1-1.95.45L408.57 42h-2.39l-6.34-10.71h-3.92V42h-2.11zm2.11 10h4.46a7.22 7.22 0 0 0 2.69-.42 4.64 4.64 0 0 0 1.61-1 3.25 3.25 0 0 0 .78-1.31 4.56 4.56 0 0 0 .21-1.27 4.63 4.63 0 0 0-.21-1.28 3.21 3.21 0 0 0-.78-1.3 4.36 4.36 0 0 0-1.61-1 7.22 7.22 0 0 0-2.69-.42h-4.46zM263.4 9.35a3.32 3.32 0 1 1-3.4 3.35 3.33 3.33 0 0 1 3.4-3.35"/><path class="cls-4" d="M268.37 24.12l-.43-.69-.08.88c-.06.27-1.12 3.21-2.09 5.88a22.23 22.23 0 0 0-2.08-12.49 24.13 24.13 0 0 0-1.36-2.23 13.86 13.86 0 0 1-1-1.59l-.05-.09c-.39-.66-.89-1.48-.76-1.88a12 12 0 0 0 .48-3.27 6.52 6.52 0 0 0-.09-1.25c-.09-.41-.13-.63-.18-1a.49.49 0 0 1 0-.17V6a4.41 4.41 0 0 0-.32-.78 3.83 3.83 0 0 0-.25-.44L260 4.5l-.08-.29h-.55v.22a.21.21 0 0 0 0 .11l-.13.41c0 .21-.07.43-.09.65s-.08.53-.13.82q-.53-1.09-1.14-2.13L254.94 0l.65 5.11a15.89 15.89 0 0 1 0 4.77 24.55 24.55 0 0 1-3.47 3.87l-.08.08q-.37.35-.78.66a6.75 6.75 0 0 0-1.07 1c-1.16 1-2.35 2-3.76 3.24-3.72 3.28-5.16 7.64-4.93 10.5a14 14 0 0 0 4.5 9.21 22.3 22.3 0 0 0 4.68 3.26 10.32 10.32 0 0 0 11.48-.17 12.93 12.93 0 0 0 4.94-6.81 21.07 21.07 0 0 0 .76-4l.61-6.61z"/><path class="cls-5" d="M256.71 4.7s3.84 6.26 3.2 12.41-4.8 9-6.83 13.74-.85 9.67.85 11c-2.24-1.62-8.11-4.64-7.68-12.63.21-2.48 1.71-6.9 5.34-11.22s5.97-6 5.12-13.3z"/><path class="cls-6" d="M248.46 38.7s-5.48-3.89-5.7-9.78c-.21-2.59 1.19-6.55 4.56-9.57 3.84-3.45 4.91-4.17 5.69-5-2.21 2.67-7 7.84-7.83 12.3a15.46 15.46 0 0 0 3.28 12.05z"/><path class="cls-7" d="M255.21 42.25s-3.41-5-.92-10.5c.85-1.65 3.84-5.25 5.27-8.56a16.34 16.34 0 0 0 1.63-7.62C263.4 18.7 267 27.87 262.9 35a10.15 10.15 0 0 0 3.84-4.53c-.35 3.94-2.13 11.35-11.53 11.78z"/><path class="cls-8" d="M255.57 41.46a8.15 8.15 0 0 1 .29-7.84c2-3.16 4.05-3.81 5.26-7.26.21 3.59.07 8.34-3 12.37a7.23 7.23 0 0 0 3.13-1.37c-.7 1.51-2.05 3.45-5.68 4.1z"/><path class="cls-9" d="M252 39.62s-6.18-7.08-1.84-14.34c3-5.25 6.84-5.58 7.69-13.19 0 5.49.57 8.18-4.08 14.3-3.06 4.02-3.77 9.42-1.77 13.23z"/><path class="cls-10" d="M259.65 5.44s1.73 5.09-3.46 12.4C252.42 23.15 245 31 252.88 40.7c-3.2-3.35-6.3-9.18-2.85-16.07 3.15-6.32 10.8-10.36 9.62-19.19z"/><path class="cls-11" d="M262.76 12.52h.79a1.1 1.1 0 0 0 .26-.06.39.39 0 0 0 .17-.14.45.45 0 0 0 .07-.28.5.5 0 0 0-.06-.24.4.4 0 0 0-.15-.14.79.79 0 0 0-.22-.06h-.86zm-.41-1.32h1.07a1.25 1.25 0 0 1 .78.2.8.8 0 0 1 .26.65.73.73 0 0 1-.23.59 1.11 1.11 0 0 1-.55.22l.84 1.3h-.44l-.8-1.27h-.52v1.27h-.41zm-1.2 1.5a2.26 2.26 0 0 0 .17.85 1.9 1.9 0 0 0 .46.69 1.86 1.86 0 0 0 .68.46 2.11 2.11 0 0 0 1.67 0 2.4 2.4 0 0 0 .68-.46 2.18 2.18 0 0 0 .46-.7 2.35 2.35 0 0 0 .16-.87 2.12 2.12 0 0 0-.62-1.55 2.37 2.37 0 0 0-.68-.45 2.11 2.11 0 0 0-1.67 0 1.86 1.86 0 0 0-.68.46 2 2 0 0 0-.46.69 2.42 2.42 0 0 0-.17.88m-.4 0a2.48 2.48 0 0 1 .2-1 2.81 2.81 0 0 1 .55-.82 2.94 2.94 0 0 1 .81-.54 2.73 2.73 0 0 1 2 0 2.66 2.66 0 0 1 .82.54 2.6 2.6 0 0 1 .55.8A2.52 2.52 0 0 1 264.4 15h-.09a2.6 2.6 0 0 1-2 0 2.42 2.42 0 0 1-.81-.53 3.06 3.06 0 0 1-.5-.83 2.48 2.48 0 0 1-.2-1"/></svg>