<svg id="Layer_1" data-name="Layer 1" xmlns="http://www.w3.org/2000/svg" width="100" height="100" viewBox="0 0 100 100"><defs><style>.cls-1{fill:#58595b;}.cls-2{fill:#ffde17;}</style></defs><title>simplifier</title><path class="cls-1" d="M100,83.64A16.35,16.35,0,0,1,83.65,100H16.35A16.35,16.35,0,0,1,0,83.64V16.35A16.35,16.35,0,0,1,16.35,0H83.65A16.35,16.35,0,0,1,100,16.35Z"/><path class="cls-2" d="M43.94,59.62a1.08,1.08,0,0,0-1.08,1.08V72.41a1.08,1.08,0,1,0,2.16,0V60.69A1.08,1.08,0,0,0,43.94,59.62Z"/><path class="cls-2" d="M50,59.62a1.08,1.08,0,0,0-1.08,1.08V72.42a1.08,1.08,0,1,0,2.15,0V60.69A1.08,1.08,0,0,0,50,59.62Z"/><path class="cls-2" d="M56,59.62a1.08,1.08,0,0,0-1.07,1.08V72.42a1.08,1.08,0,1,0,2.15,0V60.69A1.08,1.08,0,0,0,56,59.62Z"/><path class="cls-2" d="M49.81,56.54a9.1,9.1,0,1,0-9.1-9.1A9.12,9.12,0,0,0,49.81,56.54Zm0-15.61a6.51,6.51,0,1,1-6.51,6.51A6.52,6.52,0,0,1,49.81,40.92Z"/><circle class="cls-2" cx="49.81" cy="47.44" r="2.81"/><path class="cls-2" d="M68.39,75.8H64V56.33h4.09a3.74,3.74,0,0,0,3.74-3.74V42.39a3.75,3.75,0,0,0-3.74-3.74H64V36.08H65a3.95,3.95,0,1,0,0-7.9h-.44A14.17,14.17,0,0,0,56.09,16.4c-.72-1.6-3.25-2.19-5.63-2.19h0c-2.39,0-4.92.61-5.64,2.22a14,14,0,0,0-8.35,11.76h-1.5a3.95,3.95,0,1,0,0,7.9h.92v2.57H31.61a3.74,3.74,0,0,0-3.74,3.74v10.2a3.74,3.74,0,0,0,3.74,3.74h4.24V75.8H32.31a3.74,3.74,0,0,0-3.74,3.74V81a3.74,3.74,0,0,0,3.74,3.74H68.39A3.74,3.74,0,0,0,72.12,81V79.54A3.74,3.74,0,0,0,68.39,75.8Zm-.25-34.56a1.15,1.15,0,0,1,1.15,1.15v10.2a1.15,1.15,0,0,1-1.15,1.15H64V41.24ZM46.34,18.58l.77-.18,0-.87c.17-.25,1.36-.73,3.28-.74a10.21,10.21,0,0,1,3.3.59l0,.87.81.31a11.4,11.4,0,0,1,7.38,9.63H39A11.41,11.41,0,0,1,46.34,18.58ZM34.93,33.49a1.36,1.36,0,1,1,0-2.72H65a1.36,1.36,0,0,1,0,2.72h-30ZM31.61,53.74a1.15,1.15,0,0,1-1.15-1.15V42.39a1.15,1.15,0,0,1,1.15-1.15h4.24v12.5Zm6.83-17.66h23V75.8h-23ZM69.54,81a1.15,1.15,0,0,1-1.15,1.15H32.31A1.15,1.15,0,0,1,31.16,81V79.54a1.15,1.15,0,0,1,1.15-1.15h3.54v0H64v0h4.34a1.15,1.15,0,0,1,1.15,1.15Z"/></svg>